<mxfile host="app.diagrams.net" modified="2024-04-29T07:19:55.119Z" agent="Mozilla/5.0 (Windows NT 10.0; Win64; x64) AppleWebKit/537.36 (KHTML, like Gecko) Chrome/123.0.0.0 Safari/537.36" etag="Gzp3wTh1SjhON_gDrqdC" version="24.3.1" type="device">
  <diagram name="第 1 页" id="_7PyObRNZWsoRmS7bOab">
    <mxGraphModel dx="1434" dy="738" grid="1" gridSize="10" guides="1" tooltips="1" connect="1" arrows="1" fold="1" page="1" pageScale="1" pageWidth="827" pageHeight="1169" math="0" shadow="0">
      <root>
        <mxCell id="0" />
        <mxCell id="1" parent="0" />
        <mxCell id="nq94LhxT0SGV-kHKaB9D-1" value="" style="rounded=1;whiteSpace=wrap;html=1;" parent="1" vertex="1">
          <mxGeometry x="50" y="330" width="150" height="170" as="geometry" />
        </mxCell>
        <mxCell id="nq94LhxT0SGV-kHKaB9D-11" value="" style="rounded=0;orthogonalLoop=1;jettySize=auto;html=1;" parent="1" source="nq94LhxT0SGV-kHKaB9D-13" target="nq94LhxT0SGV-kHKaB9D-16" edge="1">
          <mxGeometry relative="1" as="geometry" />
        </mxCell>
        <mxCell id="nq94LhxT0SGV-kHKaB9D-12" style="rounded=0;orthogonalLoop=1;jettySize=auto;html=1;entryX=0;entryY=0.5;entryDx=0;entryDy=0;" parent="1" source="nq94LhxT0SGV-kHKaB9D-13" target="nq94LhxT0SGV-kHKaB9D-17" edge="1">
          <mxGeometry relative="1" as="geometry" />
        </mxCell>
        <mxCell id="nq94LhxT0SGV-kHKaB9D-13" value="" style="ellipse;whiteSpace=wrap;html=1;aspect=fixed;fillColor=#dae8fc;strokeColor=#6c8ebf;" parent="1" vertex="1">
          <mxGeometry x="50" y="425" width="30" height="30" as="geometry" />
        </mxCell>
        <mxCell id="nq94LhxT0SGV-kHKaB9D-14" value="" style="rounded=0;orthogonalLoop=1;jettySize=auto;html=1;" parent="1" source="nq94LhxT0SGV-kHKaB9D-16" target="nq94LhxT0SGV-kHKaB9D-20" edge="1">
          <mxGeometry relative="1" as="geometry" />
        </mxCell>
        <mxCell id="nq94LhxT0SGV-kHKaB9D-15" value="" style="rounded=0;orthogonalLoop=1;jettySize=auto;html=1;" parent="1" source="nq94LhxT0SGV-kHKaB9D-16" target="nq94LhxT0SGV-kHKaB9D-21" edge="1">
          <mxGeometry relative="1" as="geometry" />
        </mxCell>
        <mxCell id="nq94LhxT0SGV-kHKaB9D-16" value="" style="ellipse;whiteSpace=wrap;html=1;aspect=fixed;fillColor=#dae8fc;strokeColor=#6c8ebf;" parent="1" vertex="1">
          <mxGeometry x="110" y="400" width="30" height="30" as="geometry" />
        </mxCell>
        <mxCell id="nq94LhxT0SGV-kHKaB9D-17" value="" style="ellipse;whiteSpace=wrap;html=1;aspect=fixed;fillColor=#dae8fc;strokeColor=#6c8ebf;" parent="1" vertex="1">
          <mxGeometry x="90" y="455" width="30" height="30" as="geometry" />
        </mxCell>
        <mxCell id="nq94LhxT0SGV-kHKaB9D-18" value="" style="rounded=0;orthogonalLoop=1;jettySize=auto;html=1;" parent="1" source="nq94LhxT0SGV-kHKaB9D-19" target="nq94LhxT0SGV-kHKaB9D-22" edge="1">
          <mxGeometry relative="1" as="geometry" />
        </mxCell>
        <mxCell id="nq94LhxT0SGV-kHKaB9D-19" value="" style="ellipse;whiteSpace=wrap;html=1;aspect=fixed;fillColor=#dae8fc;strokeColor=#6c8ebf;" parent="1" vertex="1">
          <mxGeometry x="160" y="415" width="30" height="30" as="geometry" />
        </mxCell>
        <mxCell id="nq94LhxT0SGV-kHKaB9D-20" value="" style="ellipse;whiteSpace=wrap;html=1;aspect=fixed;fillColor=#dae8fc;strokeColor=#6c8ebf;" parent="1" vertex="1">
          <mxGeometry x="80" y="350" width="30" height="30" as="geometry" />
        </mxCell>
        <mxCell id="nq94LhxT0SGV-kHKaB9D-21" value="" style="ellipse;whiteSpace=wrap;html=1;aspect=fixed;fillColor=#dae8fc;strokeColor=#6c8ebf;" parent="1" vertex="1">
          <mxGeometry x="130" y="455" width="30" height="30" as="geometry" />
        </mxCell>
        <mxCell id="nq94LhxT0SGV-kHKaB9D-22" value="" style="ellipse;whiteSpace=wrap;html=1;aspect=fixed;fillColor=#dae8fc;strokeColor=#6c8ebf;" parent="1" vertex="1">
          <mxGeometry x="140" y="360" width="30" height="30" as="geometry" />
        </mxCell>
        <mxCell id="nq94LhxT0SGV-kHKaB9D-63" value="&lt;font face=&quot;Times New Roman&quot; style=&quot;font-size: 27px;&quot;&gt;...&lt;/font&gt;" style="shape=cube;whiteSpace=wrap;html=1;boundedLbl=1;backgroundOutline=1;darkOpacity=0.05;darkOpacity2=0.1;size=10;fillColor=#fff2cc;strokeColor=#d6b656;" parent="1" vertex="1">
          <mxGeometry x="220" y="252.5" width="170" height="355" as="geometry" />
        </mxCell>
        <mxCell id="nq94LhxT0SGV-kHKaB9D-83" value="" style="endArrow=classic;html=1;rounded=0;entryX=0.5;entryY=1;entryDx=0;entryDy=0;" parent="1" target="nq94LhxT0SGV-kHKaB9D-19" edge="1">
          <mxGeometry width="50" height="50" relative="1" as="geometry">
            <mxPoint x="160" y="470" as="sourcePoint" />
            <mxPoint x="210" y="420" as="targetPoint" />
          </mxGeometry>
        </mxCell>
        <mxCell id="nq94LhxT0SGV-kHKaB9D-84" value="" style="rounded=0;orthogonalLoop=1;jettySize=auto;html=1;" parent="1" source="nq94LhxT0SGV-kHKaB9D-86" target="nq94LhxT0SGV-kHKaB9D-89" edge="1">
          <mxGeometry relative="1" as="geometry" />
        </mxCell>
        <mxCell id="nq94LhxT0SGV-kHKaB9D-85" style="rounded=0;orthogonalLoop=1;jettySize=auto;html=1;entryX=0;entryY=0.5;entryDx=0;entryDy=0;" parent="1" source="nq94LhxT0SGV-kHKaB9D-86" target="nq94LhxT0SGV-kHKaB9D-90" edge="1">
          <mxGeometry relative="1" as="geometry" />
        </mxCell>
        <mxCell id="nq94LhxT0SGV-kHKaB9D-86" value="" style="ellipse;whiteSpace=wrap;html=1;aspect=fixed;fillColor=#dae8fc;strokeColor=#6c8ebf;" parent="1" vertex="1">
          <mxGeometry x="235" y="347.5" width="30" height="30" as="geometry" />
        </mxCell>
        <mxCell id="nq94LhxT0SGV-kHKaB9D-87" value="" style="rounded=0;orthogonalLoop=1;jettySize=auto;html=1;" parent="1" source="nq94LhxT0SGV-kHKaB9D-89" target="nq94LhxT0SGV-kHKaB9D-93" edge="1">
          <mxGeometry relative="1" as="geometry" />
        </mxCell>
        <mxCell id="nq94LhxT0SGV-kHKaB9D-88" value="" style="rounded=0;orthogonalLoop=1;jettySize=auto;html=1;" parent="1" source="nq94LhxT0SGV-kHKaB9D-89" target="nq94LhxT0SGV-kHKaB9D-94" edge="1">
          <mxGeometry relative="1" as="geometry" />
        </mxCell>
        <mxCell id="nq94LhxT0SGV-kHKaB9D-89" value="" style="ellipse;whiteSpace=wrap;html=1;aspect=fixed;fillColor=#d5e8d4;strokeColor=#82b366;" parent="1" vertex="1">
          <mxGeometry x="295" y="322.5" width="30" height="30" as="geometry" />
        </mxCell>
        <mxCell id="nq94LhxT0SGV-kHKaB9D-90" value="" style="ellipse;whiteSpace=wrap;html=1;aspect=fixed;fillColor=#dae8fc;strokeColor=#6c8ebf;" parent="1" vertex="1">
          <mxGeometry x="275" y="377.5" width="30" height="30" as="geometry" />
        </mxCell>
        <mxCell id="nq94LhxT0SGV-kHKaB9D-91" value="" style="rounded=0;orthogonalLoop=1;jettySize=auto;html=1;" parent="1" source="nq94LhxT0SGV-kHKaB9D-92" target="nq94LhxT0SGV-kHKaB9D-95" edge="1">
          <mxGeometry relative="1" as="geometry" />
        </mxCell>
        <mxCell id="nq94LhxT0SGV-kHKaB9D-92" value="" style="ellipse;whiteSpace=wrap;html=1;aspect=fixed;fillColor=#dae8fc;strokeColor=#6c8ebf;" parent="1" vertex="1">
          <mxGeometry x="345" y="337.5" width="30" height="30" as="geometry" />
        </mxCell>
        <mxCell id="nq94LhxT0SGV-kHKaB9D-93" value="" style="ellipse;whiteSpace=wrap;html=1;aspect=fixed;fillColor=#dae8fc;strokeColor=#6c8ebf;" parent="1" vertex="1">
          <mxGeometry x="265" y="272.5" width="30" height="30" as="geometry" />
        </mxCell>
        <mxCell id="nq94LhxT0SGV-kHKaB9D-94" value="" style="ellipse;whiteSpace=wrap;html=1;aspect=fixed;fillColor=#dae8fc;strokeColor=#6c8ebf;" parent="1" vertex="1">
          <mxGeometry x="315" y="377.5" width="30" height="30" as="geometry" />
        </mxCell>
        <mxCell id="nq94LhxT0SGV-kHKaB9D-95" value="" style="ellipse;whiteSpace=wrap;html=1;aspect=fixed;fillColor=#dae8fc;strokeColor=#6c8ebf;" parent="1" vertex="1">
          <mxGeometry x="325" y="282.5" width="30" height="30" as="geometry" />
        </mxCell>
        <mxCell id="nq94LhxT0SGV-kHKaB9D-96" value="" style="endArrow=classic;html=1;rounded=0;entryX=0.5;entryY=1;entryDx=0;entryDy=0;" parent="1" target="nq94LhxT0SGV-kHKaB9D-92" edge="1">
          <mxGeometry width="50" height="50" relative="1" as="geometry">
            <mxPoint x="345" y="392.5" as="sourcePoint" />
            <mxPoint x="395" y="342.5" as="targetPoint" />
          </mxGeometry>
        </mxCell>
        <mxCell id="nq94LhxT0SGV-kHKaB9D-110" value="" style="rounded=0;orthogonalLoop=1;jettySize=auto;html=1;" parent="1" source="nq94LhxT0SGV-kHKaB9D-112" target="nq94LhxT0SGV-kHKaB9D-115" edge="1">
          <mxGeometry relative="1" as="geometry" />
        </mxCell>
        <mxCell id="nq94LhxT0SGV-kHKaB9D-111" style="rounded=0;orthogonalLoop=1;jettySize=auto;html=1;entryX=0;entryY=0.5;entryDx=0;entryDy=0;" parent="1" source="nq94LhxT0SGV-kHKaB9D-112" target="nq94LhxT0SGV-kHKaB9D-116" edge="1">
          <mxGeometry relative="1" as="geometry" />
        </mxCell>
        <mxCell id="nq94LhxT0SGV-kHKaB9D-112" value="" style="ellipse;whiteSpace=wrap;html=1;aspect=fixed;fillColor=#dae8fc;strokeColor=#6c8ebf;" parent="1" vertex="1">
          <mxGeometry x="240" y="537.5" width="30" height="30" as="geometry" />
        </mxCell>
        <mxCell id="nq94LhxT0SGV-kHKaB9D-113" value="" style="rounded=0;orthogonalLoop=1;jettySize=auto;html=1;" parent="1" source="nq94LhxT0SGV-kHKaB9D-115" target="nq94LhxT0SGV-kHKaB9D-119" edge="1">
          <mxGeometry relative="1" as="geometry" />
        </mxCell>
        <mxCell id="nq94LhxT0SGV-kHKaB9D-114" value="" style="rounded=0;orthogonalLoop=1;jettySize=auto;html=1;" parent="1" source="nq94LhxT0SGV-kHKaB9D-115" target="nq94LhxT0SGV-kHKaB9D-120" edge="1">
          <mxGeometry relative="1" as="geometry" />
        </mxCell>
        <mxCell id="nq94LhxT0SGV-kHKaB9D-115" value="" style="ellipse;whiteSpace=wrap;html=1;aspect=fixed;fillColor=#dae8fc;strokeColor=#6c8ebf;" parent="1" vertex="1">
          <mxGeometry x="300" y="512.5" width="30" height="30" as="geometry" />
        </mxCell>
        <mxCell id="nq94LhxT0SGV-kHKaB9D-116" value="" style="ellipse;whiteSpace=wrap;html=1;aspect=fixed;fillColor=#dae8fc;strokeColor=#6c8ebf;" parent="1" vertex="1">
          <mxGeometry x="280" y="567.5" width="30" height="30" as="geometry" />
        </mxCell>
        <mxCell id="nq94LhxT0SGV-kHKaB9D-117" value="" style="rounded=0;orthogonalLoop=1;jettySize=auto;html=1;" parent="1" source="nq94LhxT0SGV-kHKaB9D-118" target="nq94LhxT0SGV-kHKaB9D-121" edge="1">
          <mxGeometry relative="1" as="geometry" />
        </mxCell>
        <mxCell id="nq94LhxT0SGV-kHKaB9D-118" value="" style="ellipse;whiteSpace=wrap;html=1;aspect=fixed;fillColor=#dae8fc;strokeColor=#6c8ebf;" parent="1" vertex="1">
          <mxGeometry x="350" y="527.5" width="30" height="30" as="geometry" />
        </mxCell>
        <mxCell id="nq94LhxT0SGV-kHKaB9D-119" value="" style="ellipse;whiteSpace=wrap;html=1;aspect=fixed;fillColor=#d5e8d4;strokeColor=#82b366;" parent="1" vertex="1">
          <mxGeometry x="270" y="462.5" width="30" height="30" as="geometry" />
        </mxCell>
        <mxCell id="nq94LhxT0SGV-kHKaB9D-120" value="" style="ellipse;whiteSpace=wrap;html=1;aspect=fixed;fillColor=#dae8fc;strokeColor=#6c8ebf;" parent="1" vertex="1">
          <mxGeometry x="320" y="567.5" width="30" height="30" as="geometry" />
        </mxCell>
        <mxCell id="nq94LhxT0SGV-kHKaB9D-121" value="" style="ellipse;whiteSpace=wrap;html=1;aspect=fixed;fillColor=#dae8fc;strokeColor=#6c8ebf;" parent="1" vertex="1">
          <mxGeometry x="330" y="472.5" width="30" height="30" as="geometry" />
        </mxCell>
        <mxCell id="nq94LhxT0SGV-kHKaB9D-122" value="" style="endArrow=classic;html=1;rounded=0;entryX=0.5;entryY=1;entryDx=0;entryDy=0;" parent="1" target="nq94LhxT0SGV-kHKaB9D-118" edge="1">
          <mxGeometry width="50" height="50" relative="1" as="geometry">
            <mxPoint x="350" y="582.5" as="sourcePoint" />
            <mxPoint x="400" y="532.5" as="targetPoint" />
          </mxGeometry>
        </mxCell>
        <mxCell id="nq94LhxT0SGV-kHKaB9D-125" value="&lt;font face=&quot;Times New Roman&quot; style=&quot;font-size: 27px;&quot;&gt;...&lt;/font&gt;" style="shape=cube;whiteSpace=wrap;html=1;boundedLbl=1;backgroundOutline=1;darkOpacity=0.05;darkOpacity2=0.1;size=10;fillColor=#fff2cc;strokeColor=#d6b656;" parent="1" vertex="1">
          <mxGeometry x="489.31" y="252.5" width="170" height="355" as="geometry" />
        </mxCell>
        <mxCell id="nq94LhxT0SGV-kHKaB9D-126" value="" style="rounded=0;orthogonalLoop=1;jettySize=auto;html=1;" parent="1" source="nq94LhxT0SGV-kHKaB9D-128" target="nq94LhxT0SGV-kHKaB9D-131" edge="1">
          <mxGeometry relative="1" as="geometry" />
        </mxCell>
        <mxCell id="nq94LhxT0SGV-kHKaB9D-127" style="rounded=0;orthogonalLoop=1;jettySize=auto;html=1;entryX=0;entryY=0.5;entryDx=0;entryDy=0;" parent="1" source="nq94LhxT0SGV-kHKaB9D-128" target="nq94LhxT0SGV-kHKaB9D-132" edge="1">
          <mxGeometry relative="1" as="geometry" />
        </mxCell>
        <mxCell id="nq94LhxT0SGV-kHKaB9D-128" value="" style="ellipse;whiteSpace=wrap;html=1;aspect=fixed;fillColor=#dae8fc;strokeColor=#6c8ebf;" parent="1" vertex="1">
          <mxGeometry x="504.31" y="347.5" width="30" height="30" as="geometry" />
        </mxCell>
        <mxCell id="nq94LhxT0SGV-kHKaB9D-129" value="" style="rounded=0;orthogonalLoop=1;jettySize=auto;html=1;" parent="1" source="nq94LhxT0SGV-kHKaB9D-131" target="nq94LhxT0SGV-kHKaB9D-135" edge="1">
          <mxGeometry relative="1" as="geometry" />
        </mxCell>
        <mxCell id="nq94LhxT0SGV-kHKaB9D-130" value="" style="rounded=0;orthogonalLoop=1;jettySize=auto;html=1;" parent="1" source="nq94LhxT0SGV-kHKaB9D-131" target="nq94LhxT0SGV-kHKaB9D-136" edge="1">
          <mxGeometry relative="1" as="geometry" />
        </mxCell>
        <mxCell id="nq94LhxT0SGV-kHKaB9D-131" value="" style="ellipse;whiteSpace=wrap;html=1;aspect=fixed;fillColor=#d5e8d4;strokeColor=#82b366;" parent="1" vertex="1">
          <mxGeometry x="564.31" y="322.5" width="30" height="30" as="geometry" />
        </mxCell>
        <mxCell id="nq94LhxT0SGV-kHKaB9D-132" value="" style="ellipse;whiteSpace=wrap;html=1;aspect=fixed;fillColor=#dae8fc;strokeColor=#6c8ebf;" parent="1" vertex="1">
          <mxGeometry x="544.31" y="377.5" width="30" height="30" as="geometry" />
        </mxCell>
        <mxCell id="nq94LhxT0SGV-kHKaB9D-133" value="" style="rounded=0;orthogonalLoop=1;jettySize=auto;html=1;" parent="1" source="nq94LhxT0SGV-kHKaB9D-134" target="nq94LhxT0SGV-kHKaB9D-137" edge="1">
          <mxGeometry relative="1" as="geometry" />
        </mxCell>
        <mxCell id="nq94LhxT0SGV-kHKaB9D-134" value="" style="ellipse;whiteSpace=wrap;html=1;aspect=fixed;fillColor=#dae8fc;strokeColor=#6c8ebf;" parent="1" vertex="1">
          <mxGeometry x="614.31" y="337.5" width="30" height="30" as="geometry" />
        </mxCell>
        <mxCell id="nq94LhxT0SGV-kHKaB9D-135" value="" style="ellipse;whiteSpace=wrap;html=1;aspect=fixed;fillColor=#dae8fc;strokeColor=#6c8ebf;" parent="1" vertex="1">
          <mxGeometry x="534.31" y="272.5" width="30" height="30" as="geometry" />
        </mxCell>
        <mxCell id="nq94LhxT0SGV-kHKaB9D-136" value="" style="ellipse;whiteSpace=wrap;html=1;aspect=fixed;fillColor=#dae8fc;strokeColor=#6c8ebf;" parent="1" vertex="1">
          <mxGeometry x="584.31" y="377.5" width="30" height="30" as="geometry" />
        </mxCell>
        <mxCell id="nq94LhxT0SGV-kHKaB9D-137" value="" style="ellipse;whiteSpace=wrap;html=1;aspect=fixed;fillColor=#dae8fc;strokeColor=#6c8ebf;" parent="1" vertex="1">
          <mxGeometry x="594.31" y="282.5" width="30" height="30" as="geometry" />
        </mxCell>
        <mxCell id="nq94LhxT0SGV-kHKaB9D-138" value="" style="endArrow=classic;html=1;rounded=0;entryX=0.5;entryY=1;entryDx=0;entryDy=0;" parent="1" target="nq94LhxT0SGV-kHKaB9D-134" edge="1">
          <mxGeometry width="50" height="50" relative="1" as="geometry">
            <mxPoint x="614.31" y="392.5" as="sourcePoint" />
            <mxPoint x="664.31" y="342.5" as="targetPoint" />
          </mxGeometry>
        </mxCell>
        <mxCell id="nq94LhxT0SGV-kHKaB9D-139" value="" style="rounded=0;orthogonalLoop=1;jettySize=auto;html=1;" parent="1" source="nq94LhxT0SGV-kHKaB9D-141" target="nq94LhxT0SGV-kHKaB9D-144" edge="1">
          <mxGeometry relative="1" as="geometry" />
        </mxCell>
        <mxCell id="nq94LhxT0SGV-kHKaB9D-140" style="rounded=0;orthogonalLoop=1;jettySize=auto;html=1;entryX=0;entryY=0.5;entryDx=0;entryDy=0;" parent="1" source="nq94LhxT0SGV-kHKaB9D-141" target="nq94LhxT0SGV-kHKaB9D-145" edge="1">
          <mxGeometry relative="1" as="geometry" />
        </mxCell>
        <mxCell id="nq94LhxT0SGV-kHKaB9D-141" value="" style="ellipse;whiteSpace=wrap;html=1;aspect=fixed;fillColor=#dae8fc;strokeColor=#6c8ebf;" parent="1" vertex="1">
          <mxGeometry x="509.31" y="537.5" width="30" height="30" as="geometry" />
        </mxCell>
        <mxCell id="nq94LhxT0SGV-kHKaB9D-142" value="" style="rounded=0;orthogonalLoop=1;jettySize=auto;html=1;" parent="1" source="nq94LhxT0SGV-kHKaB9D-144" target="nq94LhxT0SGV-kHKaB9D-148" edge="1">
          <mxGeometry relative="1" as="geometry" />
        </mxCell>
        <mxCell id="nq94LhxT0SGV-kHKaB9D-143" value="" style="rounded=0;orthogonalLoop=1;jettySize=auto;html=1;" parent="1" source="nq94LhxT0SGV-kHKaB9D-144" target="nq94LhxT0SGV-kHKaB9D-149" edge="1">
          <mxGeometry relative="1" as="geometry" />
        </mxCell>
        <mxCell id="nq94LhxT0SGV-kHKaB9D-144" value="" style="ellipse;whiteSpace=wrap;html=1;aspect=fixed;fillColor=#dae8fc;strokeColor=#6c8ebf;" parent="1" vertex="1">
          <mxGeometry x="569.31" y="512.5" width="30" height="30" as="geometry" />
        </mxCell>
        <mxCell id="nq94LhxT0SGV-kHKaB9D-145" value="" style="ellipse;whiteSpace=wrap;html=1;aspect=fixed;fillColor=#dae8fc;strokeColor=#6c8ebf;" parent="1" vertex="1">
          <mxGeometry x="549.31" y="567.5" width="30" height="30" as="geometry" />
        </mxCell>
        <mxCell id="nq94LhxT0SGV-kHKaB9D-146" value="" style="rounded=0;orthogonalLoop=1;jettySize=auto;html=1;" parent="1" source="nq94LhxT0SGV-kHKaB9D-147" target="nq94LhxT0SGV-kHKaB9D-150" edge="1">
          <mxGeometry relative="1" as="geometry" />
        </mxCell>
        <mxCell id="nq94LhxT0SGV-kHKaB9D-147" value="" style="ellipse;whiteSpace=wrap;html=1;aspect=fixed;fillColor=#dae8fc;strokeColor=#6c8ebf;" parent="1" vertex="1">
          <mxGeometry x="619.31" y="527.5" width="30" height="30" as="geometry" />
        </mxCell>
        <mxCell id="nq94LhxT0SGV-kHKaB9D-148" value="" style="ellipse;whiteSpace=wrap;html=1;aspect=fixed;fillColor=#d5e8d4;strokeColor=#82b366;" parent="1" vertex="1">
          <mxGeometry x="539.31" y="462.5" width="30" height="30" as="geometry" />
        </mxCell>
        <mxCell id="nq94LhxT0SGV-kHKaB9D-149" value="" style="ellipse;whiteSpace=wrap;html=1;aspect=fixed;fillColor=#dae8fc;strokeColor=#6c8ebf;" parent="1" vertex="1">
          <mxGeometry x="589.31" y="567.5" width="30" height="30" as="geometry" />
        </mxCell>
        <mxCell id="nq94LhxT0SGV-kHKaB9D-150" value="" style="ellipse;whiteSpace=wrap;html=1;aspect=fixed;fillColor=#dae8fc;strokeColor=#6c8ebf;" parent="1" vertex="1">
          <mxGeometry x="599.31" y="472.5" width="30" height="30" as="geometry" />
        </mxCell>
        <mxCell id="nq94LhxT0SGV-kHKaB9D-151" value="" style="endArrow=classic;html=1;rounded=0;entryX=0.5;entryY=1;entryDx=0;entryDy=0;" parent="1" target="nq94LhxT0SGV-kHKaB9D-147" edge="1">
          <mxGeometry width="50" height="50" relative="1" as="geometry">
            <mxPoint x="619.31" y="582.5" as="sourcePoint" />
            <mxPoint x="669.31" y="532.5" as="targetPoint" />
          </mxGeometry>
        </mxCell>
        <mxCell id="nq94LhxT0SGV-kHKaB9D-154" value="" style="endArrow=none;html=1;rounded=0;" parent="1" edge="1">
          <mxGeometry width="50" height="50" relative="1" as="geometry">
            <mxPoint x="410" y="427.5" as="sourcePoint" />
            <mxPoint x="410" y="427.4999999999999" as="targetPoint" />
          </mxGeometry>
        </mxCell>
        <mxCell id="nq94LhxT0SGV-kHKaB9D-157" value="" style="rounded=1;whiteSpace=wrap;html=1;glass=0;shadow=1;" parent="1" vertex="1">
          <mxGeometry x="680" y="346.25" width="60" height="150" as="geometry" />
        </mxCell>
        <mxCell id="nq94LhxT0SGV-kHKaB9D-158" value="&lt;font face=&quot;Times New Roman&quot; style=&quot;font-size: 16px;&quot;&gt;&lt;b&gt;ReLU&lt;/b&gt;&lt;/font&gt;" style="text;html=1;align=center;verticalAlign=middle;resizable=0;points=[];autosize=1;strokeColor=none;fillColor=none;" parent="1" vertex="1">
          <mxGeometry x="680" y="357.5" width="60" height="30" as="geometry" />
        </mxCell>
        <mxCell id="nq94LhxT0SGV-kHKaB9D-159" value="" style="endArrow=none;html=1;rounded=0;" parent="1" edge="1">
          <mxGeometry width="50" height="50" relative="1" as="geometry">
            <mxPoint x="679.31" y="417.5" as="sourcePoint" />
            <mxPoint x="679.3099999999997" y="417.4999999999999" as="targetPoint" />
          </mxGeometry>
        </mxCell>
        <mxCell id="nq94LhxT0SGV-kHKaB9D-160" value="" style="endArrow=none;html=1;rounded=0;fontStyle=1;strokeWidth=3;" parent="1" edge="1">
          <mxGeometry width="50" height="50" relative="1" as="geometry">
            <mxPoint x="720" y="431.81" as="sourcePoint" />
            <mxPoint x="735" y="400" as="targetPoint" />
          </mxGeometry>
        </mxCell>
        <mxCell id="nq94LhxT0SGV-kHKaB9D-161" value="" style="endArrow=none;html=1;rounded=0;fontStyle=1;fontSize=24;strokeWidth=3;" parent="1" edge="1">
          <mxGeometry width="50" height="50" relative="1" as="geometry">
            <mxPoint x="685" y="432" as="sourcePoint" />
            <mxPoint x="720" y="431.81" as="targetPoint" />
          </mxGeometry>
        </mxCell>
        <mxCell id="nq94LhxT0SGV-kHKaB9D-162" value="&lt;font style=&quot;font-size: 27px;&quot;&gt;&lt;b&gt;...&lt;/b&gt;&lt;/font&gt;" style="text;html=1;align=center;verticalAlign=middle;resizable=0;points=[];autosize=1;strokeColor=none;fillColor=none;" parent="1" vertex="1">
          <mxGeometry x="740" y="386.25" width="50" height="50" as="geometry" />
        </mxCell>
        <mxCell id="nq94LhxT0SGV-kHKaB9D-163" value="&lt;font face=&quot;宋体&quot; style=&quot;font-size: 16px;&quot;&gt;&lt;b&gt;全&lt;br&gt;局&lt;br&gt;平&lt;br&gt;均&lt;br&gt;池&lt;br&gt;化&lt;br&gt;层&lt;/b&gt;&lt;/font&gt;" style="shape=cube;whiteSpace=wrap;html=1;boundedLbl=1;backgroundOutline=1;darkOpacity=0.05;darkOpacity2=0.1;size=6;fillColor=#d5e8d4;strokeColor=#82b366;gradientColor=#97d077;" parent="1" vertex="1">
          <mxGeometry x="780" y="340" width="60" height="152.5" as="geometry" />
        </mxCell>
        <mxCell id="nq94LhxT0SGV-kHKaB9D-164" value="&lt;font face=&quot;宋体&quot; style=&quot;font-size: 16px;&quot;&gt;&lt;b&gt;&lt;br&gt;&lt;br&gt;图级别&lt;br&gt;特征表示&lt;/b&gt;&lt;/font&gt;" style="rounded=1;whiteSpace=wrap;html=1;" parent="1" vertex="1">
          <mxGeometry x="860" y="368.75" width="90" height="105" as="geometry" />
        </mxCell>
        <mxCell id="nq94LhxT0SGV-kHKaB9D-165" value="" style="ellipse;whiteSpace=wrap;html=1;aspect=fixed;fillColor=#ffe6cc;strokeColor=#d79b00;" parent="1" vertex="1">
          <mxGeometry x="890" y="386.25" width="30" height="30" as="geometry" />
        </mxCell>
        <mxCell id="nq94LhxT0SGV-kHKaB9D-166" value="" style="rounded=1;whiteSpace=wrap;html=1;glass=0;shadow=1;" parent="1" vertex="1">
          <mxGeometry x="414" y="350" width="60" height="150" as="geometry" />
        </mxCell>
        <mxCell id="nq94LhxT0SGV-kHKaB9D-167" value="&lt;font face=&quot;Times New Roman&quot; style=&quot;font-size: 16px;&quot;&gt;&lt;b&gt;ReLU&lt;/b&gt;&lt;/font&gt;" style="text;html=1;align=center;verticalAlign=middle;resizable=0;points=[];autosize=1;strokeColor=none;fillColor=none;" parent="1" vertex="1">
          <mxGeometry x="414" y="360" width="60" height="30" as="geometry" />
        </mxCell>
        <mxCell id="nq94LhxT0SGV-kHKaB9D-168" value="" style="endArrow=none;html=1;rounded=0;" parent="1" target="nq94LhxT0SGV-kHKaB9D-166" edge="1">
          <mxGeometry width="50" height="50" relative="1" as="geometry">
            <mxPoint x="414" y="430" as="sourcePoint" />
            <mxPoint x="464" y="380" as="targetPoint" />
          </mxGeometry>
        </mxCell>
        <mxCell id="nq94LhxT0SGV-kHKaB9D-169" value="" style="endArrow=none;html=1;rounded=0;fontStyle=1;strokeWidth=3;" parent="1" edge="1">
          <mxGeometry width="50" height="50" relative="1" as="geometry">
            <mxPoint x="454" y="434.31" as="sourcePoint" />
            <mxPoint x="469" y="402.5" as="targetPoint" />
          </mxGeometry>
        </mxCell>
        <mxCell id="nq94LhxT0SGV-kHKaB9D-170" value="" style="endArrow=none;html=1;rounded=0;fontStyle=1;fontSize=24;strokeWidth=3;" parent="1" edge="1">
          <mxGeometry width="50" height="50" relative="1" as="geometry">
            <mxPoint x="419" y="434.5" as="sourcePoint" />
            <mxPoint x="454" y="434.31" as="targetPoint" />
          </mxGeometry>
        </mxCell>
        <mxCell id="nq94LhxT0SGV-kHKaB9D-171" value="&lt;font style=&quot;font-size: 16px;&quot;&gt;&lt;b&gt;图卷积层1&lt;/b&gt;&lt;/font&gt;" style="text;html=1;align=center;verticalAlign=middle;resizable=0;points=[];autosize=1;strokeColor=none;fillColor=none;" parent="1" vertex="1">
          <mxGeometry x="255" y="218" width="100" height="30" as="geometry" />
        </mxCell>
        <mxCell id="nq94LhxT0SGV-kHKaB9D-172" value="&lt;font style=&quot;font-size: 15px;&quot;&gt;&lt;b&gt;图卷积层2&lt;/b&gt;&lt;/font&gt;" style="text;html=1;align=center;verticalAlign=middle;resizable=0;points=[];autosize=1;strokeColor=none;fillColor=none;" parent="1" vertex="1">
          <mxGeometry x="515" y="218" width="90" height="30" as="geometry" />
        </mxCell>
        <mxCell id="nq94LhxT0SGV-kHKaB9D-173" value="&lt;font style=&quot;font-size: 16px;&quot;&gt;&lt;b&gt;输入（用图表示晶圆）&lt;/b&gt;&lt;/font&gt;" style="text;html=1;align=center;verticalAlign=middle;resizable=0;points=[];autosize=1;strokeColor=none;fillColor=none;" parent="1" vertex="1">
          <mxGeometry x="30" y="292.5" width="180" height="30" as="geometry" />
        </mxCell>
      </root>
    </mxGraphModel>
  </diagram>
</mxfile>
